<?xml version="1.0" encoding="utf-8"?>
<!-- Generator: Adobe Illustrator 19.0.1, SVG Export Plug-In . SVG Version: 6.00 Build 0)  -->
<svg version="1.1" id="Layer_1" xmlns="http://www.w3.org/2000/svg" xmlns:xlink="http://www.w3.org/1999/xlink" x="0px" y="0px"
	 viewBox="0 0 32 32" style="enable-background:new 0 0 32 32;" xml:space="preserve">
<g>
	<g>
		<path d="M6.5,8.5C6.1,6.2,6.1,3.3,4.9,1.3C4.5,2,4.1,2.8,3.6,3.5c2.9-0.2,5,2.4,7.1,3.9c1.6,1.1,3.1-1.5,1.5-2.6
			c-2.7-1.9-5-4.6-8.6-4.3C2.5,0.6,1.7,1.7,2.3,2.8c0.5,0.9,0.6,2,0.7,2.9c0.2,1.2,0.4,2.4,0.6,3.5C3.9,11.2,6.8,10.3,6.5,8.5
			L6.5,8.5z"/>
	</g>
</g>
<g>
	<g>
		<path d="M12.6,7.8c3.7-0.7,7.3-0.4,10.7,1c1.8,0.7,2.6-2.2,0.8-2.9c-4-1.5-8.2-1.8-12.3-1C9.9,5.3,10.7,8.1,12.6,7.8L12.6,7.8z"/>
	</g>
</g>
<g>
	<g>
		<path d="M25.4,7.9c0.8-0.7,1.5-1.3,2.3-2c0.3-0.2,0.6-0.4,0.9-0.7C29,5.1,29.1,5,28.8,4.8c-0.2-0.3-0.3-0.2-0.3,0.3
			C28,5.8,28,7,27.8,7.8c-0.2,1.1-0.3,2.1-0.5,3.2c-0.2,1.9,2.8,1.9,3,0c0.2-1.8,0.6-3.5,1-5.3c0.3-1.2,0.4-2.6-0.9-3.3
			c-2.7-1.5-5.5,1.9-7.2,3.4C21.8,7,24,9.1,25.4,7.9L25.4,7.9z"/>
	</g>
</g>
<g>
	<g>
		<path d="M27.1,12.5c0.6,3.1-1.1,5.9-2.6,8.4c-2.3,3.8-5.3,5.9-10,4.9c-6.8-1.4-13.3-8.2-8.1-14.9c1.2-1.5-1.4-3-2.6-1.5
			C-3,18.4,6.2,27.7,15.2,29c4.6,0.7,7.4-0.2,10.2-4c2.9-3.8,5.5-8.5,4.6-13.3C29.7,9.8,26.8,10.6,27.1,12.5L27.1,12.5z"/>
	</g>
</g>
<g>
	<g>
		<path d="M14.7,15.4c0,0.8-0.2,1.6-0.6,2.3c-0.4,0.8-0.6,1-1.5,0.7c-1.9-0.5-2.7,2.4-0.8,2.9c1.8,0.5,3.3,0.2,4.4-1.3
			c1-1.3,1.4-2.9,1.5-4.5C17.8,13.5,14.8,13.5,14.7,15.4L14.7,15.4z"/>
	</g>
</g>
<g>
	<g>
		<path d="M14.1,19.9c0.8,1.9,2.8,2.2,4.7,2.3c0.8,0,1.5-0.7,1.5-1.5c0-0.8-0.7-1.5-1.5-1.5c-0.4,0-0.8,0-1.2-0.1
			c-0.2,0-0.4-0.2-0.5-0.2c-0.2,0-0.2-0.3-0.1,0.2c-0.3-0.8-1-1.3-1.8-1C14.4,18.2,13.8,19.1,14.1,19.9L14.1,19.9z"/>
	</g>
</g>
<g>
	<g>
		<path d="M8.2,11.9c1.1,0.9,2.3,1.8,3.5,2.6c0.7,0.5,1.7,0.1,2.1-0.5c0.4-0.8,0.1-1.6-0.5-2.1c-1-0.7-1.9-1.4-2.8-2.2
			c-0.6-0.5-1.5-0.6-2.1,0C7.7,10.3,7.6,11.4,8.2,11.9L8.2,11.9z"/>
	</g>
</g>
<g>
	<g>
		<path d="M11.1,9.6c-0.9,0.9-1.7,2-2.2,3.1c-0.4,0.7-0.2,1.6,0.5,2.1c0.7,0.4,1.7,0.2,2.1-0.5c0.5-0.9,1-1.8,1.7-2.5
			C14.5,10.3,12.4,8.2,11.1,9.6L11.1,9.6z"/>
	</g>
</g>
<g>
	<g>
		<path d="M20,12.3c0.6,1,1.3,1.8,2.2,2.5c0.6,0.5,1.5,0.6,2.1,0c0.5-0.5,0.6-1.6,0-2.1c-0.8-0.6-1.3-1.2-1.7-1.9
			c-0.4-0.7-1.3-1-2.1-0.5C19.9,10.6,19.6,11.6,20,12.3L20,12.3z"/>
	</g>
</g>
<g>
	<g>
		<path d="M23,9.6c-1.8,1-3.2,2.5-4.1,4.3c-0.4,0.7-0.2,1.6,0.5,2.1c0.7,0.4,1.7,0.2,2.1-0.5c0.7-1.4,1.7-2.5,3-3.2
			C26.2,11.3,24.7,8.7,23,9.6L23,9.6z"/>
	</g>
</g>
<g>
	<g>
		<path d="M22.6,26.4c1.3,0.8,2.7,1.4,4.2,1.8c1.9,0.5,2.7-2.4,0.8-2.9c-1.2-0.4-2.4-0.9-3.5-1.5C22.5,22.8,21,25.4,22.6,26.4
			L22.6,26.4z"/>
	</g>
</g>
<g>
	<g>
		<path d="M22.9,23.1c1.9,0.4,3.9,0.8,5.8,1.1c1.9,0.3,2.7-2.6,0.8-2.9c-2-0.3-3.9-0.7-5.8-1.1C21.8,19.8,21,22.7,22.9,23.1
			L22.9,23.1z"/>
	</g>
</g>
<g>
	<g>
		<path d="M26.2,20.3c1.3,0.1,2.5,0.1,3.8,0.1c1.9,0,1.9-3,0-3c-1.3,0-2.5,0-3.8-0.1C24.2,17.2,24.3,20.2,26.2,20.3L26.2,20.3z"/>
	</g>
</g>
<g>
	<g>
		<path d="M6.4,22.6c-0.7,0.8-1.5,1.5-2.4,2c-0.7,0.4-1,1.3-0.5,2.1c0.4,0.7,1.4,1,2.1,0.5c1.1-0.7,2.1-1.5,3-2.5
			c0.6-0.6,0.6-1.5,0-2.1C8,22.1,7,22,6.4,22.6L6.4,22.6z"/>
	</g>
</g>
<g>
	<g>
		<path d="M4.4,19.6c-1.2,0.7-2.5,1.4-3.7,2.2c-1.6,1-0.1,3.6,1.5,2.6c1.2-0.8,2.4-1.5,3.7-2.2C7.6,21.2,6.1,18.6,4.4,19.6L4.4,19.6
			z"/>
	</g>
</g>
<g>
	<g>
		<path d="M4.5,16.3c-2,0.5-4.1,0.9-6.2,1.1c-1.9,0.2-1.9,3.2,0,3c2.4-0.2,4.7-0.6,7-1.2C7.1,18.7,6.3,15.8,4.5,16.3L4.5,16.3z"/>
	</g>
</g>
</svg>
